<svg xmlns="http://www.w3.org/2000/svg" width="900" height="1100" viewBox="0 0 900 1100"><defs><linearGradient id="silk" x1="0" x2="1"><stop stop-color="#30101f"/><stop offset=".22" stop-color="#752641"/><stop offset=".39" stop-color="#411329"/><stop offset=".64" stop-color="#9c465b"/><stop offset=".81" stop-color="#4b172d"/><stop offset="1" stop-color="#7a3046"/></linearGradient><linearGradient id="gold"><stop stop-color="#8c622d"/><stop offset=".3" stop-color="#dfbf7a"/><stop offset=".6" stop-color="#ab783d"/><stop offset="1" stop-color="#ecd7a1"/></linearGradient><pattern id="motif" width="100" height="100" patternUnits="userSpaceOnUse"><path d="M50 24 Q75 45 50 69 Q25 45 50 24 M50 32V62 M35 47H65" fill="none" stroke="#e9bd79" stroke-width="1.5" opacity=".52"/></pattern><pattern id="border" width="90" height="100" patternUnits="userSpaceOnUse"><path d="M45 10 Q85 35 45 90 Q5 35 45 10 M45 22 Q66 42 45 70 Q24 42 45 22" fill="none" stroke="#532735" stroke-width="2"/><circle cx="45" cy="45" r="5" fill="#532735"/></pattern><filter id="grain"><feTurbulence type="fractalNoise" baseFrequency=".7" numOctaves="3" stitchTiles="stitch"/><feColorMatrix type="saturate" values="0"/><feComponentTransfer><feFuncA type="linear" slope=".1"/></feComponentTransfer><feBlend in="SourceGraphic" mode="soft-light"/></filter></defs><rect width="900" height="1100" fill="#3b1427"/><g transform="rotate(-16 450 550)" filter="url(#grain)"><rect x="-300" y="-400" width="1500" height="1800" fill="url(#silk)"/><rect x="-300" y="-400" width="1500" height="1800" fill="url(#motif)"/><path d="M580 -400Q470 160 630 540T550 1450" fill="none" stroke="#2f0b20" stroke-width="50" opacity=".25"/><rect x="-300" y="760" width="1500" height="160" fill="url(#gold)"/><rect x="-300" y="785" width="1500" height="100" fill="url(#border)"/><path d="M-300 774H1200 M-300 900H1200 M-300 913H1200" stroke="#f4d899" stroke-width="4"/><rect x="-300" y="930" width="1500" height="500" fill="url(#silk)"/></g></svg>
