<svg xmlns="http://www.w3.org/2000/svg" width="64" height="64" viewBox="0 0 100 100"><rect width="100" height="100" rx="16" fill="#4a172a"/><g transform="translate(10 10) scale(.8)" fill="none" stroke="#d9bb82" stroke-width="3"><ellipse cx="50" cy="28" rx="9" ry="22" transform="rotate(0 50 50)"/><ellipse cx="50" cy="28" rx="9" ry="22" transform="rotate(45 50 50)"/><ellipse cx="50" cy="28" rx="9" ry="22" transform="rotate(90 50 50)"/><ellipse cx="50" cy="28" rx="9" ry="22" transform="rotate(135 50 50)"/><ellipse cx="50" cy="28" rx="9" ry="22" transform="rotate(180 50 50)"/><ellipse cx="50" cy="28" rx="9" ry="22" transform="rotate(225 50 50)"/><ellipse cx="50" cy="28" rx="9" ry="22" transform="rotate(270 50 50)"/><ellipse cx="50" cy="28" rx="9" ry="22" transform="rotate(315 50 50)"/></g></svg>
